<svg xmlns="http://www.w3.org/2000/svg" viewBox="0 0 512 512" role="img" aria-label="Groove Music Store">
  <defs>
    <linearGradient id="bg" x1="0%" y1="0%" x2="100%" y2="100%">
      <stop offset="0%" stop-color="#111217" />
      <stop offset="100%" stop-color="#23242d" />
    </linearGradient>
    <linearGradient id="accent" x1="0%" y1="0%" x2="100%" y2="100%">
      <stop offset="0%" stop-color="#f8d36a" />
      <stop offset="100%" stop-color="#d6a93b" />
    </linearGradient>
  </defs>
  <rect width="512" height="512" rx="112" fill="url(#bg)" />
  <circle cx="256" cy="256" r="168" fill="none" stroke="url(#accent)" stroke-width="18" opacity="0.95" />
  <circle cx="256" cy="256" r="96" fill="none" stroke="#f7f1dc" stroke-width="12" opacity="0.8" />
  <circle cx="256" cy="256" r="26" fill="url(#accent)" />
  <path d="M296 144c38 0 69 31 69 69v15c0 6-4 11-10 11s-10-5-10-11v-15c0-27-22-49-49-49h-4v127c0 18-9 35-24 45s-34 13-51 8c-28-7-48-34-43-63 4-24 25-43 50-44 15-1 30 4 41 13V144h31z" fill="url(#accent)" />
</svg>